<?xml version="1.0" encoding="utf-8"?>
<!-- Generator: Adobe Illustrator 15.0.0, SVG Export Plug-In  -->
<!DOCTYPE svg PUBLIC "-//W3C//DTD SVG 1.1//EN" "http://www.w3.org/Graphics/SVG/1.1/DTD/svg11.dtd" [
	<!ENTITY ns_flows "http://ns.adobe.com/Flows/1.0/">
]>
<svg version="1.1"
	 xmlns="http://www.w3.org/2000/svg" xmlns:xlink="http://www.w3.org/1999/xlink" xmlns:a="http://ns.adobe.com/AdobeSVGViewerExtensions/3.0/"
	 x="0px" y="0px" width="500px" height="95px" viewBox="-7.322 -4.594 500 95" enable-background="new -7.322 -4.594 500 95"
	 xml:space="preserve">
<defs>
</defs>
<path d="M86.511,0H8.394C3.758,0,0,3.758,0,8.395v71.023c0,4.635,3.758,8.394,8.394,8.394h78.118c4.635,0,8.394-3.759,8.394-8.394
	V8.395C94.905,3.758,91.146,0,86.511,0z"/>
<path fill="#00A79D" d="M127.303,44.672c0.812,3.996,2.746,6.928,7.116,6.928c3.433,0,6.117-1.872,6.117-5.492
	c0-3.995-3.371-4.994-6.554-6.304c-4.744-1.998-9.238-3.246-9.238-9.364c0-5.492,4.432-8.551,9.55-8.551
	c5.431,0,8.614,3.121,9.925,8.176l-3.995,1.187c-0.749-3.184-2.435-5.431-5.993-5.431c-2.684,0-5.305,1.373-5.305,4.308
	c0,3.058,1.872,3.931,4.369,5.055l6.929,3.06c2.934,1.622,4.494,4.244,4.494,7.614c0,6.18-4.307,9.676-10.299,9.676
	c-6.055,0-9.862-3.87-10.861-9.676L127.303,44.672z"/>
<path fill="#00A79D" d="M169.563,26.195h-8.989V22.45h21.972v3.745h-8.801v28.775h-4.182V26.195z"/>
<path fill="#00A79D" d="M203.021,22.45v22.159c0,4.744,1.373,6.99,5.68,6.99c5.243,0,6.367-2.309,6.367-6.99V22.45h4.182v24.156
	c0,4.308-3.059,8.927-10.237,8.927c-7.054,0-10.175-4.432-10.175-9.176V22.45H203.021z"/>
<path fill="#00A79D" d="M238.726,22.45H259.2v3.745h-16.292v9.738h13.67v3.745h-13.67v15.292h-4.182V22.45z"/>
<path fill="#00A79D" d="M276.179,22.45h20.474v3.745h-16.291v9.738h13.67v3.745h-13.67v15.292h-4.183V22.45z"/>
<path d="M334.419,38.742c0,2.622-0.188,16.792-11.548,16.792c-5.243,0-11.548-3.744-11.548-16.792
	c0-12.983,6.18-16.853,11.548-16.853C328.052,21.889,334.419,25.634,334.419,38.742z M315.694,38.742
	c0,4.746,0.873,12.858,7.178,12.858s7.179-8.112,7.179-12.858c0-4.805-0.874-12.92-7.179-12.92S315.694,33.937,315.694,38.742z"/>
<path d="M352.21,22.45h4.182v28.776h17.041v3.744H352.21V22.45z"/>
<path d="M409.326,38.742c0,2.622-0.187,16.792-11.548,16.792c-5.243,0-11.548-3.744-11.548-16.792
	c0-12.983,6.18-16.853,11.548-16.853C402.958,21.889,409.326,25.634,409.326,38.742z M390.6,38.742
	c0,4.746,0.873,12.858,7.178,12.858s7.179-8.112,7.179-12.858c0-4.805-0.874-12.92-7.179-12.92S390.6,33.937,390.6,38.742z"/>
<path d="M446.217,51.975c-2.685,2.123-6.679,3.559-9.987,3.559c-9.551,0-12.297-8.863-12.297-16.854
	c0-7.864,2.871-16.791,12.172-16.791c4.369,0,8.177,2.559,10.425,6.242l-3.559,2.309c-1.561-2.621-3.933-4.619-7.115-4.619
	c-6.431,0-7.554,8.052-7.554,12.983c0,5.056,1.123,12.795,7.678,12.795c2.123,0,4.244-0.561,6.055-1.684v-8.552h-7.802v-3.746
	h11.984V51.975z"/>
<path d="M481.361,21.638l3.933,2.061l-10.549,18.726v12.546h-4.183V42.425l-10.486-18.726l3.933-2.061l8.676,16.73L481.361,21.638z"
	/>
<path fill="#00A79C" d="M67.774,62.385c-0.725-1.064-12.62-14.627-14.104-16.276c-0.594-0.659-1.064-1.942-1.064-4.911
	c0-2.472,0-10.513,0-13.13c1.079-0.442,1.731-1.015,1.731-1.64c0-1.401-3.267-2.537-7.296-2.537c-4.03,0-7.296,1.136-7.296,2.537
	c0,0.625,0.652,1.198,1.731,1.64c0,2.617,0,10.658,0,13.13c0,2.969-0.47,4.252-1.064,4.911
	c-1.483,1.649-13.267,15.299-14.104,16.276c-0.687,0.801-1.164,2.224,0.263,4.196c2.131,3.149,10.758,5.495,20.471,5.495
	s18.093-2.346,20.225-5.495C68.631,64.691,68.321,63.186,67.774,62.385z M41.45,25.719c0-0.732,2.503-1.327,5.59-1.327
	c3.088,0,5.59,0.594,5.59,1.327c0,0.518-1.252,0.967-3.077,1.185c0.034-0.005,0.069-0.011,0.103-0.017
	c0.129-0.091,0.201-0.188,0.201-0.289c0-0.499-1.708-0.905-3.813-0.905c-1.797,0-3.3,0.295-3.702,0.693
	c0.076,0.05,0.168,0.098,0.273,0.144C41.886,26.305,41.45,26.024,41.45,25.719z M48.35,48.033c0,0-0.856,0.055-1.31,0.055
	c-2.698,0-4.638-0.656-4.638-1.467c0-0.505-0.039-0.752,0.212-0.619c0.777,0.502,2.463,0.85,4.425,0.85
	c0.454,0,0.729-0.018,1.31-0.055C48.929,46.76,48.992,47.909,48.35,48.033z M48.35,52.133c0,0-0.856,0.055-1.31,0.055
	c-2.698,0-4.638-0.656-4.638-1.468c0-0.503-0.039-0.75,0.212-0.617c0.777,0.501,2.463,0.849,4.425,0.849
	c0.454,0,0.729-0.017,1.31-0.055C48.929,50.859,48.992,52.01,48.35,52.133z M48.35,44.181c0,0-0.856,0.054-1.31,0.054
	c-2.698,0-4.638-0.656-4.638-1.466c0-0.504-0.039-0.752,0.212-0.618c0.777,0.5,2.463,0.849,4.425,0.849
	c0.454,0,0.729-0.017,1.31-0.055C48.929,42.907,48.992,44.057,48.35,44.181z M48.35,40.328c0,0-0.856,0.054-1.31,0.054
	c-2.698,0-4.638-0.656-4.638-1.467c0-0.504-0.039-0.752,0.212-0.619c0.777,0.5,2.463,0.85,4.425,0.85
	c0.454,0,0.729-0.017,1.31-0.056C48.929,39.055,48.992,40.204,48.35,40.328z M48.35,36.722c0,0-0.856,0.055-1.31,0.055
	c-2.698,0-4.638-0.656-4.638-1.467c0-0.504-0.039-0.751,0.212-0.618c0.777,0.5,2.463,0.849,4.425,0.849
	c0.454,0,0.729-0.017,1.31-0.054C48.929,35.45,48.992,36.599,48.35,36.722z M65.106,65.652c0-3.549-9.001-6.424-20.102-6.424
	c-5.556,0-10.587,0.719-14.226,1.886c3.429-1.786,9.429-2.97,16.262-2.97c10.655,0,19.293,2.876,19.293,6.425
	C66.333,65.594,65.106,66.267,65.106,65.652z"/>
<path fill="#00A79C" d="M75.202,53.603c-0.45-0.658-7.823-9.065-8.743-10.088c-0.368-0.409-0.659-1.204-0.659-3.044
	c0-1.532,0-6.516,0-8.138c0.668-0.274,1.073-0.628,1.073-1.016c0-0.87-2.025-1.573-4.522-1.573c-2.497,0-4.522,0.703-4.522,1.573
	c0,0.387,0.404,0.742,1.073,1.016c0,1.622,0,6.606,0,8.138c0,1.84-0.291,2.635-0.659,3.044c-0.208,0.231-0.744,0.845-1.453,1.659
	c1.529,1.709,11.341,12.898,11.948,13.789c0.012,0.016,0.021,0.035,0.034,0.053c3.027-0.602,5.303-1.612,6.114-2.812
	C75.733,55.033,75.541,54.1,75.202,53.603z M63.909,31.611c0.02-0.003,0.042-0.007,0.063-0.01c0.08-0.057,0.124-0.117,0.124-0.179
	c0-0.31-1.057-0.56-2.363-0.56c-1.113,0-2.044,0.182-2.294,0.429c0.047,0.031,0.104,0.06,0.169,0.089
	c-0.452-0.14-0.722-0.313-0.722-0.502c0-0.454,1.552-0.823,3.465-0.823s3.464,0.369,3.464,0.823
	C65.815,31.199,65.04,31.476,63.909,31.611z"/>
<path fill="#00A79C" d="M36.897,45.588c-0.67-0.764-1.183-1.343-1.371-1.552c-0.308-0.341-0.551-1.006-0.551-2.542
	c0-1.28,0-5.443,0-6.798c0.558-0.229,0.896-0.525,0.896-0.85c0-0.725-1.691-1.313-3.776-1.313c-2.086,0-3.778,0.588-3.778,1.313
	c0,0.325,0.337,0.621,0.896,0.85c0,1.355,0,5.518,0,6.798c0,1.536-0.244,2.201-0.551,2.542c-0.768,0.854-6.869,7.92-7.303,8.427
	c-0.355,0.415-0.602,1.15,0.136,2.172c0.704,1.039,2.771,1.908,5.478,2.402C30.018,53.511,35.172,47.551,36.897,45.588z M29.2,33.48
	c0-0.379,1.296-0.687,2.895-0.687c1.597,0,2.893,0.308,2.893,0.687c0,0.268-0.647,0.5-1.592,0.614
	c0.017-0.004,0.037-0.006,0.052-0.01c0.066-0.047,0.104-0.097,0.104-0.149c0-0.259-0.884-0.469-1.974-0.469
	c-0.931,0-1.709,0.153-1.917,0.359c0.041,0.025,0.087,0.051,0.142,0.074C29.425,33.783,29.2,33.638,29.2,33.48z"/>
<path fill="#00A79C" d="M46.204,5.265c-1.529,0-2.769,1.24-2.769,2.768c0,1.528,1.24,2.768,2.769,2.768
	c1.527,0,2.767-1.24,2.767-2.768C48.971,6.504,47.731,5.265,46.204,5.265z M45.96,9.592c-1.013,0-1.834-0.822-1.834-1.834
	s0.821-1.834,1.834-1.834c1.014,0,1.834,0.822,1.834,1.834S46.974,9.592,45.96,9.592z"/>
<path fill="#00A79C" d="M38.872,9.278c-1.901,0-3.442,1.541-3.442,3.442c0,1.902,1.542,3.442,3.442,3.442s3.443-1.541,3.443-3.442
	C42.314,10.819,40.772,9.278,38.872,9.278z M38.57,14.66c-1.26,0-2.281-1.021-2.281-2.282c0-1.259,1.021-2.281,2.281-2.281
	c1.259,0,2.282,1.022,2.282,2.281C40.852,13.638,39.829,14.66,38.57,14.66z"/>
<circle fill="#00A79C" cx="41.288" cy="20.38" r="1.44"/>
</svg>
